M48
INCH,TZ
T1C0.0157
T2C0.0177
T3C0.0394
%
G90
G05
T1
X-25706Y29966
X-24780Y29516
X-23843Y27925
X-23835Y27189
X-23512Y27575
X-23102Y29398
X-22504Y42567
X-22488Y34917
X-22433Y30202
X-22186Y29710
X-21886Y28590
X-21878Y38059
X-21752Y27071
X-21692Y28838
X-21502Y29205
X-21340Y29475
X-21163Y29736
X-20986Y29996
X-20910Y22366
X-20664Y22657
X-20574Y27493
X-20418Y23277
X-20172Y24040
X-20163Y27779
X-20101Y27369
X-20025Y28197
X-19926Y24507
X-19847Y28509
X-19670Y28803
X-19306Y28581
X-19060Y28314
X-18449Y50732
X-18355Y20179
X-18106Y21575
X-16305Y36253
X-16303Y37157
X-16075Y37717
X-16015Y24494
X-15690Y37157
X-15690Y36443
X-15681Y20394
X-15637Y24464
X-15504Y56902
X-15366Y37031
X-15229Y24404
X-14812Y24335
X-14432Y24303
X-14213Y-32354
X-14058Y24277
X-14012Y36176
X-13497Y24064
X-13081Y26868
X-13018Y36156
X-12875Y26314
X-12693Y26828
X-12176Y43209
X-12171Y27002
X-12150Y42495
X-11878Y43026
X-11543Y42445
X-11374Y-22606
X-11122Y11858
X-9905Y-19264
X-9524Y-39673
X-9211Y-39427
X-8854Y-39181
X-7650Y-52240
X-7566Y-19135
X-7520Y-33630
X-7465Y-17642
X-7203Y-23772
X-7190Y-21578
X-6961Y-32910
X-6839Y-52486
X-6725Y3785
X-6681Y-30496
X-6674Y20113
X-6431Y4031
X-6379Y-33143
X-6248Y-52732
X-6110Y-30217
X-5924Y-32385
X-5856Y-22763
X-5701Y-32631
X-5614Y-29970
X-5458Y-33152
X-5146Y-32906
X-4756Y-30445
X-4642Y-1022
X-4612Y-1400
X-4562Y2675
X-4500Y-16449
X-4461Y3554
X-4449Y40079
X-4358Y38780
X-4228Y-16695
X-4072Y3513
X-3421Y33425
X-3283Y-49071
X-3224Y-38445
X-2774Y-5536
X-2425Y-16272
X-2419Y-39874
X-2410Y-5258
X-2240Y-44877
X-2204Y-5807
X-2173Y-40421
X-2134Y-16531
X-1958Y-9773
X-1927Y-40894
X-1720Y-45728
X-1685Y-9461
X-1681Y-41341
X-1331Y-49083
X-346Y15417
X-201Y42244
X-142Y-30425
X-129Y-17413
X236Y-51685
X248Y14972
X579Y-50266
X1138Y-43366
X1457Y15339
X1850Y-43354
X1975Y-31708
X2106Y-42751
X2256Y-27449
X2744Y-44890
X2799Y-48031
X3146Y-44644
X3150Y-35169
X3460Y-44398
X3748Y-44152
X3846Y-42724
X4079Y-43906
X4209Y10874
X4217Y-25409
X4354Y-51945
X5469Y-39146
X6311Y-29768
X7744Y-52902
X7768Y-29366
X7988Y-24949
X8201Y-50266
X8460Y-3746
X8764Y-52409
X9126Y-41343
X9131Y-50116
X9264Y-52561
X9309Y-46963
X9445Y-50150
X9501Y-52795
X9506Y-38310
X9506Y-47276
X9703Y-47591
X9764Y-42150
X9816Y-52800
X9946Y-49997
X10122Y-33213
X10131Y-52800
X10318Y-3733
X10446Y-52800
X10461Y-49831
X10761Y-52800
X11076Y-52800
X11388Y-52762
X12028Y-42799
X12571Y-41398
X12921Y-43177
X13161Y-2276
X13280Y-11102
X14023Y-33649
X15843Y-31705
X16041Y-39887
X16045Y-10858
X16213Y-3764
X16877Y-32414
X17520Y-28969
X17657Y-30126
X17816Y-32660
X17838Y-6792
X18114Y-42841
X18415Y-24482
X18548Y-24866
X18590Y-42712
X18594Y-25260
X18930Y-24536
X19195Y-42455
X19310Y-24567
X19597Y-32244
X19598Y-31126
X19674Y-25266
X19697Y-29106
X19726Y-42273
X19740Y-25897
X19756Y-23252
X20323Y-42024
X20981Y-41713
X21586Y-41456
X21776Y-26811
X21815Y-33945
X22061Y-33480
X22262Y-41128
X22307Y-33000
X22553Y-32425
X22799Y-31929
X23045Y-31366
X23291Y-30850
X23537Y-30244
T3
X343Y47776
X343Y46776
X1343Y47776
X1343Y46776
X2343Y47776
X2343Y46776
X-19142Y61815
X-19142Y60815
X-18142Y61815
X-18142Y60815
X-17142Y61815
X-17142Y60815
T2
G00X35765Y-28608
M15
G01X36080Y-28608
M16
G05
G00X36080Y-31422
M15
G01X35765Y-31422
M16
G05
T0
M30
